<?xml version="1.0" encoding="utf-8"?>
<!-- Generator: Adobe Illustrator 23.0.3, SVG Export Plug-In . SVG Version: 6.00 Build 0)  -->
<svg version="1.1" id="Layer_1" xmlns="http://www.w3.org/2000/svg" xmlns:xlink="http://www.w3.org/1999/xlink" x="0px" y="0px"
	 viewBox="0 0 32 32" style="enable-background:new 0 0 32 32;" xml:space="preserve">
<style type="text/css">
	.st0{fill:#595958;}
	.st1{fill:#C4C4C4;}
	.st2{fill:#49311B;}
	.st3{fill:#54E294;}
	.st4{fill:none;stroke:#000000;stroke-width:2.5;stroke-miterlimit:10;}
	.st5{fill:#ADADAD;stroke:#000000;stroke-width:2.5;stroke-miterlimit:10;}
	.st6{fill:#A6A6A6;}
</style>
<g>
	<polygon points="14,26.4 9.8,25 10,24.4 13.2,25.4 12.1,19.9 6.6,18.8 7.7,22 7,22.2 5.6,18 12.6,19.4 	"/>
	<g>
		<polyline class="st0" points="9.9,24.7 13.6,25.9 12.4,19.7 6.1,18.4 7.3,22.1 		"/>
		<polygon points="14,26.4 9.8,25 10,24.4 13.2,25.4 12.1,19.9 6.6,18.8 7.7,22 7,22.2 5.6,18 12.6,19.4 		"/>
	</g>
	<g>
		<polyline class="st1" points="12.9,14 5.8,24.4 2.4,24.9 2.5,29.5 7.2,29.7 7.6,26.2 15.8,20.6 		"/>
		<polygon points="7.4,30 2.2,29.8 2,24.6 5.6,24.1 12.6,13.8 13.1,14.2 6,24.7 2.7,25.1 2.8,29.2 6.9,29.3 7.3,26.1 15.6,20.3 
			16,20.9 7.9,26.4 		"/>
	</g>
	<g>
		<polygon class="st2" points="15.8,20.6 7.6,26.2 6.3,23.6 6.3,23.6 12.9,14 		"/>
		<path d="M7.5,26.7L6,23.8l-0.2-0.1L6,23.5l6.9-10.1l3.2,7.3L7.5,26.7z M6.7,23.7l1.1,2.1l7.6-5.3l-2.5-5.8L6.7,23.7z"/>
	</g>
	<g>
		<polygon class="st3" points="6,26.1 3.8,26.3 3.9,28.1 5.7,28.2 		"/>
		<path d="M5.7,28.5C5.7,28.5,5.7,28.5,5.7,28.5l-1.8-0.1c-0.2,0-0.3-0.1-0.3-0.3l-0.1-1.8c0-0.2,0.1-0.3,0.3-0.3l2.1-0.2
			c0.1,0,0.2,0,0.3,0.1c0.1,0.1,0.1,0.2,0.1,0.3L6,28.2C6,28.4,5.9,28.5,5.7,28.5z M4.2,27.8l1.2,0l0.2-1.4l-1.4,0.2L4.2,27.8z"/>
	</g>
	<path class="st4" d="M12.9,19.2"/>
	<path class="st5" d="M12.9,22.6"/>
	<g>
		<polygon class="st6" points="29.1,2.9 12.3,19.6 9.4,19.1 20.9,2.3 		"/>
		<path d="M12.3,20C12.3,20,12.3,20,12.3,20l-3-0.6c-0.1,0-0.2-0.1-0.2-0.2c0-0.1,0-0.2,0-0.3L20.6,2.1C20.7,2,20.8,2,20.9,2
			l8.2,0.6c0.1,0,0.2,0.1,0.3,0.2c0,0.1,0,0.3-0.1,0.3L12.6,19.9C12.5,19.9,12.4,20,12.3,20z M10,18.9l2.3,0.4L28.4,3.2L21,2.7
			L10,18.9z"/>
	</g>
	<g>
		<polygon class="st6" points="29.1,2.9 12.3,19.6 12.9,22.6 29.7,11.1 		"/>
		<path d="M12.9,22.9c0,0-0.1,0-0.1,0c-0.1,0-0.2-0.1-0.2-0.2L12,19.7c0-0.1,0-0.2,0.1-0.3L28.9,2.7c0.1-0.1,0.2-0.1,0.3-0.1
			c0.1,0,0.2,0.2,0.2,0.3l0.6,8.2c0,0.1,0,0.2-0.1,0.3L13.1,22.8C13,22.9,13,22.9,12.9,22.9z M12.7,19.8l0.4,2.3l16.2-11.1l-0.5-7.3
			L12.7,19.8z"/>
	</g>
	<g>
		<polyline class="st2" points="6.3,23.6 6.3,23.6 7.6,26.2 		"/>
		<polygon points="7.4,26.4 6,23.8 6.3,23.6 6.5,23.4 6.6,23.4 7.9,26.1 		"/>
	</g>
	<rect x="7.8" y="21.9" transform="matrix(0.8973 -0.4415 0.4415 0.8973 -9.6383 6.0329)" width="0.6" height="3.6"/>
	<rect x="9" y="20.4" transform="matrix(0.8898 -0.4563 0.4563 0.8898 -9.2731 6.7251)" width="0.6" height="4.2"/>
	<rect x="10.1" y="18.9" transform="matrix(0.8898 -0.4563 0.4563 0.8898 -8.6049 7.1246)" width="0.6" height="4.9"/>
	<rect x="11.7" y="19.2" transform="matrix(0.8899 -0.4562 0.4562 0.8899 -8.2769 7.8167)" width="0.6" height="3.6"/>
</g>
</svg>
